<svg xmlns="http://www.w3.org/2000/svg" width="888" height="200" viewBox="0 0 888 200">
  <path fill="none" d="M295.225 153.48h324.367v46.039H295.225z"/>
  <path fill="#86C1D2" d="M305.724 193.083c-.36.27-.81.359-1.215.359-.72 0-1.44-.359-1.89-1.035l-14.714-21.148v19.979c0 1.215-.99 2.205-2.205 2.205s-2.25-.99-2.25-2.205v-27.044c-.09-.854.27-1.71 1.035-2.204a2.214 2.214 0 0 1 3.105.675l14.669 21.779V163.88c0-1.26 1.035-2.25 2.25-2.25s2.205.99 2.205 2.25v26.999a2.192 2.192 0 0 1-.99 2.204zm3.51-11.025c0-6.254 5.085-11.294 11.294-11.294 6.255 0 11.294 5.04 11.294 11.294 0 6.21-5.04 11.295-11.294 11.295-6.209 0-11.294-5.085-11.294-11.295zm4.455 0c0 3.735 3.06 6.84 6.839 6.84s6.84-3.104 6.84-6.84c0-3.779-3.06-6.839-6.84-6.839s-6.839 3.059-6.839 6.839zm34.333-9.044c0 1.215-.99 2.25-2.25 2.25a6.836 6.836 0 0 0-6.839 6.839v9.045c0 1.215-.99 2.25-2.205 2.25a2.257 2.257 0 0 1-2.25-2.25v-9.045c0-6.254 5.085-11.294 11.294-11.294 1.26 0 2.25.99 2.25 2.205zm18.044 0c0 1.215-.99 2.25-2.25 2.25h-3.195v15.884c0 1.215-.99 2.25-2.25 2.25-1.215 0-2.205-1.035-2.205-2.25v-15.884h-3.24c-1.215 0-2.205-1.035-2.205-2.25s.99-2.205 2.205-2.205h3.24v-9c0-1.215.99-2.205 2.205-2.205 1.26 0 2.25.99 2.25 2.205v9h3.195c1.26 0 2.25.99 2.25 2.205zm22.589 7.649v10.439c0 1.26-1.035 2.25-2.25 2.25s-2.205-.99-2.205-2.25v-10.439c0-3.015-2.475-5.444-5.49-5.444a5.435 5.435 0 0 0-5.445 5.444v10.439c0 1.26-.99 2.25-2.25 2.25-1.215 0-2.205-.99-2.205-2.25v-29.294c0-1.215.99-2.205 2.205-2.205 1.26 0 2.25.99 2.25 2.205v10.575a9.809 9.809 0 0 1 5.445-1.62c5.49.001 9.945 4.456 9.945 9.9zm25.245 1.395c0 1.215-.99 2.205-2.25 2.205h-15.524c.945 2.7 3.465 4.635 6.479 4.635 1.035 0 2.88-.09 5.04-1.484 1.035-.675 2.43-.045 2.97 1.034.54 1.125-.045 2.295-1.08 2.971-2.97 1.979-5.265 1.935-6.93 1.935-6.255 0-11.294-5.085-11.294-11.295 0-6.254 5.04-11.294 11.294-11.294 5.445-.001 11.295 3.959 11.295 11.293zm-17.775-2.25h13.004c-.945-3.149-3.825-4.589-6.525-4.589-3.014 0-5.534 1.934-6.479 4.589zm52.152.225c.045.09.045.135.045.225v10.935c0 1.26-1.033 2.25-2.248 2.25-1.216 0-2.206-.99-2.206-2.25v-11.34c0-2.521-2.07-4.545-4.59-4.545-2.521 0-4.59 2.024-4.59 4.545v11.339c0 1.26-.99 2.25-2.205 2.25s-2.25-.99-2.25-2.25v-11.339a4.531 4.531 0 0 0-4.545-4.545c-2.52 0-4.59 2.024-4.59 4.545v11.339c0 1.26-.99 2.25-2.205 2.25-1.26 0-2.25-.99-2.25-2.25v-11.339c0-4.95 4.05-9 9.045-9 2.7 0 5.13 1.17 6.795 3.104a8.903 8.903 0 0 1 6.795-3.104c4.994 0 9.043 4.05 9.043 9 .001.09.001.135-.044.18z"/>
  <path fill="#333334" d="M486.439 193.308c-1.035.225-2.43-.271-2.971-1.62l-1.619-4.59H470.87l-1.891 4.59c-.225 1.035-1.08 1.62-2.16 1.62h-.494c-1.352-.585-1.891-1.89-1.621-2.97l9.631-26.819c.27-.854 1.078-1.62 2.203-1.62 1.08 0 1.846.766 2.115 1.62l9.135 26.819c.497 1.08.001 2.385-1.349 2.97zm-5.939-10.755l-3.961-11.52-4.049 11.52h8.01zm21.105-9.539c0 1.215-.99 2.25-2.25 2.25h-3.195v15.884c0 1.215-.99 2.25-2.25 2.25-1.215 0-2.205-1.035-2.205-2.25v-15.884h-3.238c-1.217 0-2.205-1.035-2.205-2.25s.988-2.205 2.205-2.205h3.238v-9c0-1.215.99-2.205 2.205-2.205 1.26 0 2.25.99 2.25 2.205v9h3.195c1.26 0 2.25.99 2.25 2.205zm-.089 9.044c0-6.254 5.084-11.294 11.295-11.294 6.254 0 11.293 5.04 11.293 11.294 0 6.21-5.039 11.295-11.293 11.295-6.211 0-11.295-5.085-11.295-11.295zm4.455 0c0 3.735 3.059 6.84 6.84 6.84 3.779 0 6.84-3.104 6.84-6.84a6.837 6.837 0 0 0-6.84-6.839 6.835 6.835 0 0 0-6.84 6.839zm52.332-2.025c.045.09.045.135.045.225v10.935c0 1.26-1.033 2.25-2.248 2.25-1.217 0-2.205-.99-2.205-2.25v-11.34c0-2.521-2.07-4.545-4.59-4.545-2.521 0-4.59 2.024-4.59 4.545v11.339c0 1.26-.99 2.25-2.205 2.25s-2.25-.99-2.25-2.25v-11.339c0-2.521-2.025-4.545-4.545-4.545s-4.59 2.024-4.59 4.545v11.339c0 1.26-.99 2.25-2.205 2.25-1.26 0-2.25-.99-2.25-2.25v-11.339c0-4.95 4.049-9 9.045-9a8.91 8.91 0 0 1 6.795 3.104 8.9 8.9 0 0 1 6.795-3.104c4.994 0 9.043 4.05 9.043 9 0 .09 0 .135-.045.18zm16.517 2.025v-17.639c0-1.26.99-2.25 2.205-2.25 1.26 0 2.25.99 2.25 2.25v17.639c0 3.78 3.059 6.84 6.84 6.84 3.779 0 6.84-3.06 6.84-6.84v-17.639c0-1.26.988-2.25 2.203-2.25 1.262 0 2.25.99 2.25 2.25v17.639c0 6.255-5.084 11.295-11.293 11.295-6.211 0-11.295-5.04-11.295-11.295zm25.289 9.089v-27.179c0-1.215.99-2.205 2.25-2.205 1.215 0 2.205.99 2.205 2.205v27.179c0 1.26-.99 2.25-2.205 2.25-1.259 0-2.25-.99-2.25-2.25z"/>
  <g fill-rule="evenodd" clip-rule="evenodd" fill="#333334">
    <path d="M444.381 141.558c-18.951-.516-34.582-6.99-47.737-19.621-3.937-3.777-4.499-7.246-.978-11.549 3.068-3.75 5.746-7.814 8.706-11.656 3.61-4.686 5.591-4.625 9.361.117.629.791 1.202 1.627 1.826 2.42 3.673 4.672 5.838 4.758 9.395.109 4.053-5.295 7.966-10.695 11.901-16.08 2.88-3.941 5.717-4.066 8.666-.084 5.65 7.633 11.516 15.115 16.928 22.914 3.691 5.32 8.252 7.99 14.791 7.525 4.023-.283 8.084-.055 12.127-.033 1.631.008 3.439-.02 4.275 1.652 1.049 2.09-.633 3.426-1.895 4.656-11.4 11.117-24.971 17.654-40.883 19.16-2.411.229-4.835.352-6.483.47z"/>
    <path d="M444.159 6.558c41.613-.08 73.427 37.316 66.669 78.486-.402 2.449 0 5.941-2.939 6.826-3.256.979-4.18-2.557-5.645-4.541-4.691-6.344-9.164-12.852-13.842-19.205-4.201-5.701-8.359-5.715-12.588-.129-2.318 3.064-4.416 6.295-6.777 9.328-4.15 5.334-8.113 5.352-12.154-.189-8.227-11.277-16.258-22.697-24.381-34.051-5.511-7.707-9.076-7.676-14.7.178-10.486 14.641-20.912 29.322-31.45 43.924-1.445 2.004-2.338 5.486-5.583 4.713-3.137-.748-2.661-4.275-3.069-6.68-6.964-41.043 24.801-78.578 66.459-78.66z"/>
  </g>
</svg>
